<?xml version="1.0" encoding="UTF-8" standalone="no"?>

<svg
   width="60mm"
   height="15mm"
   viewBox="0 0 60 15"
   version="1.1"
   id="svg5"
   xmlns="http://www.w3.org/2000/svg"
   xmlns:svg="http://www.w3.org/2000/svg">
  <defs
     id="defs2">
    <rect
       x="173.3203"
       y="208.52597"
       width="126.69503"
       height="65.607513"
       id="rect6980-9" />
  </defs>
  <g
     id="layer1"
     transform="translate(-8.6593783,-25.859195)">
    <g
       aria-label="MPF"
       transform="matrix(0.33072915,0,0,0.33072915,-28.031282,-45.414312)"
       id="text6978-0">
      <path
         d="m 228.38672,256.91914 h -9.71353 l -2.23958,-16.48436 q -0.23438,-1.74479 -0.44271,-3.88021 -0.18229,-2.13541 -0.33854,-4.66145 -0.36459,2.42187 -1.43229,6.04166 -0.23438,0.75521 -0.33855,1.11979 l -5.18228,17.86457 h -6.92708 l -5.18229,-17.86457 q -0.10417,-0.36458 -0.3125,-1.11979 -1.09375,-3.61979 -1.43229,-6.01562 -0.15625,2.16146 -0.36459,4.29687 -0.20833,2.10938 -0.49479,4.21875 l -2.23958,16.48436 h -9.66145 l 5.88541,-38.12497 h 10.28645 l 5.75521,19.66144 q 0.0521,0.20834 0.20833,0.67709 0.80729,2.6302 1.01563,4.5052 0.10416,-1.01562 0.39062,-2.23958 0.28646,-1.25 0.78125,-2.99479 l 5.80729,-19.60936 h 10.31249 z"
         style="fill:#ffffff"
         id="path432" />
      <path
         d="m 243.72526,256.91914 h -9.73958 v -38.12497 h 10.85937 q 6.3802,0 8.95833,0.625 2.57812,0.625 4.37499,2.13541 2.10938,1.74479 3.20313,4.375 1.11979,2.60416 1.11979,5.80729 0,3.41145 -1.09375,6.01562 -1.09375,2.57812 -3.22917,4.24479 -1.61458,1.25 -3.80208,1.79687 -2.1875,0.54688 -7.0052,0.54688 h -1.77083 -1.875 z m 0,-20.96353 h 1.97916 q 3.75,0 5.23437,-1.01562 1.48438,-1.04167 1.48438,-3.51562 0,-2.39583 -1.45833,-3.41146 -1.45834,-1.01562 -5.15625,-1.01562 h -2.08333 z"
         style="fill:#ffffff"
         id="path434" />
      <path
         d="m 267.78775,256.91914 v -38.12497 h 23.35936 v 8.35937 h -13.22916 v 6.61458 h 12.47395 v 8.17707 h -12.47395 v 14.97395 z"
         style="fill:#ffffff"
         id="path436" />
    </g>
    <g
       id="g1658"
       transform="matrix(1.1664912,0,0,1.1664912,-7.788102,-3.9644676)"
       style="stroke-width:0.428636;stroke-dasharray:none">
      <g
         id="g1662"
         style="stroke-width:0.414391;stroke-dasharray:none"
         transform="matrix(1.0343755,0,0,1.0343755,-0.50357288,-0.91426777)">
        <path
           style="fill:none;fill-opacity:1;stroke:#ffffff;stroke-width:0.414391;stroke-linecap:round;stroke-linejoin:round;stroke-dasharray:none;stroke-opacity:1;paint-order:stroke fill markers"
           d="m 25.702307,26.729635 -0.854728,6.100402 h 5.498372 l -0.25063,1.779737 h -5.497339 l -0.309025,2.2071 h 7.694104 l 0.918807,-6.177917 h -5.513359 l 0.264583,-1.779737 5.513359,-0.001 0.316777,-2.128552 z"
           id="path1635" />
        <path
           style="fill:none;fill-opacity:1;stroke:#ffffff;stroke-width:0.414391;stroke-linecap:round;stroke-linejoin:round;stroke-dasharray:none;stroke-opacity:1;paint-order:stroke fill markers"
           d="m 21.685813,26.729635 -0.547253,3.906738 -5.43171,-0.0155 -0.921391,6.196004 h 7.699789 l 0.314192,-2.2071 h -2.252575 l 0.001,-0.0057 h -3.159497 l 0.264584,-1.779736 5.094262,0.0057 h 0.305408 l 0.86768,-6.100406 z"
           id="path1588" />
      </g>
    </g>

  </g>
</svg>
